<svg xmlns="http://www.w3.org/2000/svg" fill="none" viewBox="0 0 14 12">
  <path fill="#000" d="M8.438 0h-.844v.844h.843z"/>
  <path fill="#000" d="M9.281 0h-.844v.844h.844z"/>
  <path fill="#000" d="M10.125 0h-.844v.844h.844z"/>
  <path fill="#000" d="M10.969 0h-.844v.844h.844z"/>
  <path fill="#000" d="M6.75.844h-.844v.844h.844z"/>
  <path fill="#000" d="M7.594.844H6.75v.844h.844z"/>
  <path fill="#000" d="M8.438.844h-.844v.844h.843z"/>
  <path fill="#000" d="M9.281.844h-.844v.844h.844z"/>
  <path fill="#000" d="M10.125.844h-.844v.844h.844z"/>
  <path fill="#000" d="M10.969.844h-.844v.844h.844z"/>
  <path fill="#000" d="M11.813.844h-.844v.844h.844z"/>
  <path fill="#000" d="M12.656.844h-.844v.844h.844z"/>
  <path fill="#000" d="M.844 1.688H0v.843h.844z"/>
  <path fill="#000" d="M5.906 1.688h-.843v.843h.843z"/>
  <path fill="#000" d="M6.75 1.688h-.844v.843h.844z"/>
  <path fill="#000" d="M7.594 1.688H6.75v.843h.844z"/>
  <path fill="red" d="M8.438 1.688h-.844v.843h.843z"/>
  <path fill="#000" d="M9.281 1.688h-.844v.843h.844z"/>
  <path fill="#000" d="M10.125 1.688h-.844v.843h.844z"/>
  <path fill="#0f0" d="M10.969 1.688h-.844v.843h.844z"/>
  <path fill="#000" d="M11.813 1.688h-.844v.843h.844z"/>
  <path fill="#000" d="M12.656 1.688h-.844v.843h.844z"/>
  <path fill="#000" d="M13.5 1.688h-.844v.843h.844z"/>
  <path fill="#000" d="M.844 2.531H0v.844h.844z"/>
  <path fill="#000" d="M2.531 2.531h-.844v.844h.844z"/>
  <path fill="#000" d="M4.219 2.531h-.844v.844h.844z"/>
  <path fill="#000" d="M5.063 2.531h-.844v.844h.843z"/>
  <path fill="#000" d="M5.906 2.531h-.843v.844h.843z"/>
  <path fill="#000" d="M6.75 2.531h-.844v.844h.844z"/>
  <path fill="red" d="M7.594 2.531H6.75v.844h.844z"/>
  <path fill="red" d="M8.438 2.531h-.844v.844h.843z"/>
  <path fill="#000" d="M9.281 2.531h-.844v.844h.844z"/>
  <path fill="#000" d="M10.125 2.531h-.844v.844h.844z"/>
  <path fill="#0f0" d="M10.969 2.531h-.844v.844h.844z"/>
  <path fill="#0f0" d="M11.813 2.531h-.844v.844h.844z"/>
  <path fill="#000" d="M12.656 2.531h-.844v.844h.844z"/>
  <path fill="#000" d="M13.5 2.531h-.844v.844h.844z"/>
  <path fill="#000" d="M2.531 3.375h-.844v.844h.844z"/>
  <path fill="#000" d="M3.375 3.375h-.844v.844h.844z"/>
  <path fill="#000" d="M4.219 3.375h-.844v.844h.844z"/>
  <path fill="#000" d="M5.063 3.375h-.844v.844h.843z"/>
  <path fill="#000" d="M5.906 3.375h-.843v.844h.843z"/>
  <path fill="#000" d="M6.75 3.375h-.844v.844h.844z"/>
  <path fill="red" d="M7.594 3.375H6.75v.844h.844z"/>
  <path fill="red" d="M8.438 3.375h-.844v.844h.843z"/>
  <path fill="#000" d="M9.281 3.375h-.844v.844h.844z"/>
  <path fill="#000" d="M10.125 3.375h-.844v.844h.844z"/>
  <path fill="#0f0" d="M10.969 3.375h-.844v.844h.844z"/>
  <path fill="#0f0" d="M11.813 3.375h-.844v.844h.844z"/>
  <path fill="#000" d="M12.656 3.375h-.844v.844h.844z"/>
  <path fill="#000" d="M13.5 3.375h-.844v.844h.844z"/>
  <path fill="red" d="M.844 4.219H0v.843h.844z"/>
  <path fill="#000" d="M5.906 4.219h-.843v.843h.843z"/>
  <path fill="#000" d="M6.75 4.219h-.844v.843h.844z"/>
  <path fill="red" d="M7.594 4.219H6.75v.843h.844z"/>
  <path fill="#000" d="M8.438 4.219h-.844v.843h.843z"/>
  <path fill="#000" d="M9.281 4.219h-.844v.843h.844z"/>
  <path fill="#000" d="M10.125 4.219h-.844v.843h.844z"/>
  <path fill="#000" d="M10.969 4.219h-.844v.843h.844z"/>
  <path fill="#0f0" d="M11.813 4.219h-.844v.843h.844z"/>
  <path fill="#000" d="M12.656 4.219h-.844v.843h.844z"/>
  <path fill="#000" d="M13.5 4.219h-.844v.843h.844z"/>
  <path fill="red" d="M.844 5.063H0v.843h.844z"/>
  <path fill="red" d="M2.531 5.063h-.844v.843h.844z"/>
  <path fill="red" d="M4.219 5.063h-.844v.843h.844z"/>
  <path fill="red" d="M5.063 5.063h-.844v.843h.843z"/>
  <path fill="#000" d="M5.906 5.063h-.843v.843h.843z"/>
  <path fill="#000" d="M6.75 5.063h-.844v.843h.844z"/>
  <path fill="#000" d="M7.594 5.063H6.75v.843h.844z"/>
  <path fill="#000" d="M8.438 5.063h-.844v.843h.843z"/>
  <path fill="#000" d="M9.281 5.063h-.844v.843h.844z"/>
  <path fill="#000" d="M10.125 5.063h-.844v.843h.844z"/>
  <path fill="#000" d="M10.969 5.063h-.844v.843h.844z"/>
  <path fill="#000" d="M11.813 5.063h-.844v.843h.844z"/>
  <path fill="#000" d="M12.656 5.063h-.844v.843h.844z"/>
  <path fill="#000" d="M13.5 5.063h-.844v.843h.844z"/>
  <path fill="red" d="M2.531 5.906h-.844v.844h.844z"/>
  <path fill="red" d="M3.375 5.906h-.844v.844h.844z"/>
  <path fill="red" d="M4.219 5.906h-.844v.844h.844z"/>
  <path fill="red" d="M5.063 5.906h-.844v.844h.843z"/>
  <path fill="#000" d="M5.906 5.906h-.843v.844h.843z"/>
  <path fill="#000" d="M6.75 5.906h-.844v.844h.844z"/>
  <path fill="#000" d="M7.594 5.906H6.75v.844h.844z"/>
  <path fill="#00f" d="M8.438 5.906h-.844v.844h.843z"/>
  <path fill="#000" d="M9.281 5.906h-.844v.844h.844z"/>
  <path fill="#000" d="M10.125 5.906h-.844v.844h.844z"/>
  <path fill="#ff0" d="M10.969 5.906h-.844v.844h.844z"/>
  <path fill="#000" d="M11.813 5.906h-.844v.844h.844z"/>
  <path fill="#000" d="M12.656 5.906h-.844v.844h.844z"/>
  <path fill="#000" d="M13.5 5.906h-.844v.844h.844z"/>
  <path fill="#00f" d="M.844 6.75H0v.844h.844z"/>
  <path fill="#000" d="M5.906 6.75h-.843v.844h.843z"/>
  <path fill="#000" d="M6.75 6.75h-.844v.844h.844z"/>
  <path fill="#00f" d="M7.594 6.75H6.75v.844h.844z"/>
  <path fill="#00f" d="M8.438 6.75h-.844v.844h.843z"/>
  <path fill="#000" d="M9.281 6.75h-.844v.844h.844z"/>
  <path fill="#000" d="M10.125 6.75h-.844v.844h.844z"/>
  <path fill="#ff0" d="M10.969 6.75h-.844v.844h.844z"/>
  <path fill="#ff0" d="M11.813 6.75h-.844v.844h.844z"/>
  <path fill="#000" d="M12.656 6.75h-.844v.844h.844z"/>
  <path fill="#000" d="M13.5 6.75h-.844v.844h.844z"/>
  <path fill="#00f" d="M.844 7.594H0v.843h.844z"/>
  <path fill="#00f" d="M2.531 7.594h-.844v.843h.844z"/>
  <path fill="#00f" d="M4.219 7.594h-.844v.843h.844z"/>
  <path fill="#00f" d="M5.063 7.594h-.844v.843h.843z"/>
  <path fill="#000" d="M5.906 7.594h-.843v.843h.843z"/>
  <path fill="#000" d="M6.75 7.594h-.844v.843h.844z"/>
  <path fill="#00f" d="M7.594 7.594H6.75v.843h.844z"/>
  <path fill="#00f" d="M8.438 7.594h-.844v.843h.843z"/>
  <path fill="#000" d="M9.281 7.594h-.844v.843h.844z"/>
  <path fill="#000" d="M10.125 7.594h-.844v.843h.844z"/>
  <path fill="#ff0" d="M10.969 7.594h-.844v.843h.844z"/>
  <path fill="#ff0" d="M11.813 7.594h-.844v.843h.844z"/>
  <path fill="#000" d="M12.656 7.594h-.844v.843h.844z"/>
  <path fill="#000" d="M13.5 7.594h-.844v.843h.844z"/>
  <path fill="#00f" d="M2.531 8.438h-.844v.843h.844z"/>
  <path fill="#00f" d="M3.375 8.438h-.844v.843h.844z"/>
  <path fill="#00f" d="M4.219 8.438h-.844v.843h.844z"/>
  <path fill="#00f" d="M5.063 8.438h-.844v.843h.843z"/>
  <path fill="#000" d="M5.906 8.438h-.843v.843h.843z"/>
  <path fill="#000" d="M6.75 8.438h-.844v.843h.844z"/>
  <path fill="#00f" d="M7.594 8.438H6.75v.843h.844z"/>
  <path fill="#000" d="M8.438 8.438h-.844v.843h.843z"/>
  <path fill="#000" d="M9.281 8.438h-.844v.843h.844z"/>
  <path fill="#000" d="M10.125 8.438h-.844v.843h.844z"/>
  <path fill="#000" d="M10.969 8.438h-.844v.843h.844z"/>
  <path fill="#ff0" d="M11.813 8.438h-.844v.843h.844z"/>
  <path fill="#000" d="M12.656 8.438h-.844v.843h.844z"/>
  <path fill="#000" d="M13.5 8.438h-.844v.843h.844z"/>
  <path fill="#000" d="M.844 9.281H0v.844h.844z"/>
  <path fill="#000" d="M5.906 9.281h-.843v.844h.843z"/>
  <path fill="#000" d="M6.75 9.281h-.844v.844h.844z"/>
  <path fill="#000" d="M7.594 9.281H6.75v.844h.844z"/>
  <path fill="#000" d="M8.438 9.281h-.844v.844h.843z"/>
  <path fill="#000" d="M9.281 9.281h-.844v.844h.844z"/>
  <path fill="#000" d="M10.125 9.281h-.844v.844h.844z"/>
  <path fill="#000" d="M10.969 9.281h-.844v.844h.844z"/>
  <path fill="#000" d="M11.813 9.281h-.844v.844h.844z"/>
  <path fill="#000" d="M12.656 9.281h-.844v.844h.844z"/>
  <path fill="#000" d="M13.5 9.281h-.844v.844h.844z"/>
  <path fill="#000" d="M.844 10.125H0v.844h.844z"/>
  <path fill="#000" d="M2.531 10.125h-.844v.844h.844z"/>
  <path fill="#000" d="M4.219 10.125h-.844v.844h.844z"/>
  <path fill="#000" d="M5.063 10.125h-.844v.844h.843z"/>
  <path fill="#000" d="M5.906 10.125h-.843v.844h.843z"/>
  <path fill="#000" d="M6.75 10.125h-.844v.844h.844z"/>
  <path fill="#000" d="M7.594 10.125H6.75v.844h.844z"/>
  <path fill="#000" d="M11.813 10.125h-.844v.844h.844z"/>
  <path fill="#000" d="M12.656 10.125h-.844v.844h.844z"/>
  <path fill="#000" d="M13.5 10.125h-.844v.844h.844z"/>
  <path fill="#000" d="M2.531 10.969h-.844v.844h.844z"/>
  <path fill="#000" d="M3.375 10.969h-.844v.844h.844z"/>
  <path fill="#000" d="M4.219 10.969h-.844v.844h.844z"/>
  <path fill="#000" d="M5.063 10.969h-.844v.844h.843z"/>
  <path fill="#000" d="M5.906 10.969h-.843v.844h.843z"/>
  <path fill="#000" d="M13.5 10.969h-.844v.844h.844z"/>
</svg>
