<svg xmlns="http://www.w3.org/2000/svg" shape-rendering="crispEdges" viewBox="0 0 17 17">
  <path fill="#5098d7" d="M9 8h1v1H9z"/>
  <path fill="#5098d7" d="M10 8h1v1h-1z"/>
  <path fill="#5098d7" d="M11 8h1v1h-1z"/>
  <path fill="#5098d7" d="M12 8h1v1h-1z"/>
  <path fill="#5098d7" d="M13 8h1v1h-1z"/>
  <path fill="#5098d7" d="M14 8h1v1h-1z"/>
  <path fill="#5098d7" d="M15 8h1v1h-1z"/>
  <path fill="#5098d7" d="M8 9h1v1H8z"/>
  <path fill="#5098d7" d="M9 9h1v1H9z"/>
  <path fill="#5098d7" d="M10 9h1v1h-1z"/>
  <path fill="#5098d7" d="M11 9h1v1h-1z"/>
  <path fill="#5098d7" d="M12 9h1v1h-1z"/>
  <path fill="#5098d7" d="M13 9h1v1h-1z"/>
  <path fill="#e4e4e4" d="M14 9h1v1h-1z"/>
  <path fill="#5098d7" d="M15 9h1v1h-1z"/>
  <path fill="#5098d7" d="M16 9h1v1h-1z"/>
  <path fill="#5098d7" d="M8 10h1v1H8z"/>
  <path fill="#5098d7" d="M9 10h1v1H9z"/>
  <path fill="#5098d7" d="M10 10h1v1h-1z"/>
  <path fill="#5098d7" d="M11 10h1v1h-1z"/>
  <path fill="#e4e4e4" d="M12 10h1v1h-1z"/>
  <path fill="#e4e4e4" d="M13 10h1v1h-1z"/>
  <path fill="#e4e4e4" d="M14 10h1v1h-1z"/>
  <path fill="#5098d7" d="M15 10h1v1h-1z"/>
  <path fill="#5098d7" d="M16 10h1v1h-1z"/>
  <path fill="#5098d7" d="M8 11h1v1H8z"/>
  <path fill="#5098d7" d="M9 11h1v1H9z"/>
  <path fill="#e4e4e4" d="M10 11h1v1h-1z"/>
  <path fill="#e4e4e4" d="M11 11h1v1h-1z"/>
  <path fill="#e4e4e4" d="M12 11h1v1h-1z"/>
  <path fill="#b3b3b3" d="M13 11h1v1h-1z"/>
  <path fill="#e4e4e4" d="M14 11h1v1h-1z"/>
  <path fill="#5098d7" d="M15 11h1v1h-1z"/>
  <path fill="#5098d7" d="M16 11h1v1h-1z"/>
  <path fill="#5098d7" d="M8 12h1v1H8z"/>
  <path fill="#e4e4e4" d="M9 12h1v1H9z"/>
  <path fill="#e4e4e4" d="M10 12h1v1h-1z"/>
  <path fill="#e4e4e4" d="M11 12h1v1h-1z"/>
  <path fill="#b3b3b3" d="M12 12h1v1h-1z"/>
  <path fill="#e4e4e4" d="M13 12h1v1h-1z"/>
  <path fill="#e4e4e4" d="M14 12h1v1h-1z"/>
  <path fill="#5098d7" d="M15 12h1v1h-1z"/>
  <path fill="#5098d7" d="M16 12h1v1h-1z"/>
  <path fill="#5098d7" d="M8 13h1v1H8z"/>
  <path fill="#5098d7" d="M9 13h1v1H9z"/>
  <path fill="#5098d7" d="M10 13h1v1h-1z"/>
  <path fill="#b3b3b3" d="M11 13h1v1h-1z"/>
  <path fill="#b3b3b3" d="M12 13h1v1h-1z"/>
  <path fill="#e4e4e4" d="M13 13h1v1h-1z"/>
  <path fill="#e4e4e4" d="M14 13h1v1h-1z"/>
  <path fill="#5098d7" d="M15 13h1v1h-1z"/>
  <path fill="#5098d7" d="M16 13h1v1h-1z"/>
  <path fill="#5098d7" d="M8 14h1v1H8z"/>
  <path fill="#5098d7" d="M9 14h1v1H9z"/>
  <path fill="#5098d7" d="M10 14h1v1h-1z"/>
  <path fill="#b3b3b3" d="M11 14h1v1h-1z"/>
  <path fill="#5098d7" d="M12 14h1v1h-1z"/>
  <path fill="#e4e4e4" d="M13 14h1v1h-1z"/>
  <path fill="#e4e4e4" d="M14 14h1v1h-1z"/>
  <path fill="#5098d7" d="M15 14h1v1h-1z"/>
  <path fill="#5098d7" d="M16 14h1v1h-1z"/>
  <path fill="#5098d7" d="M8 15h1v1H8z"/>
  <path fill="#5098d7" d="M9 15h1v1H9z"/>
  <path fill="#5098d7" d="M10 15h1v1h-1z"/>
  <path fill="#5098d7" d="M11 15h1v1h-1z"/>
  <path fill="#5098d7" d="M12 15h1v1h-1z"/>
  <path fill="#5098d7" d="M13 15h1v1h-1z"/>
  <path fill="#e4e4e4" d="M14 15h1v1h-1z"/>
  <path fill="#5098d7" d="M15 15h1v1h-1z"/>
  <path fill="#5098d7" d="M16 15h1v1h-1z"/>
  <path fill="#5098d7" d="M9 16h1v1H9z"/>
  <path fill="#5098d7" d="M10 16h1v1h-1z"/>
  <path fill="#5098d7" d="M11 16h1v1h-1z"/>
  <path fill="#5098d7" d="M12 16h1v1h-1z"/>
  <path fill="#5098d7" d="M13 16h1v1h-1z"/>
  <path fill="#5098d7" d="M14 16h1v1h-1z"/>
  <path fill="#5098d7" d="M15 16h1v1h-1z"/>
</svg>
